<svg width="48" height="48" viewBox="0 0 48 48" fill="none" xmlns="http://www.w3.org/2000/svg">
<g filter="url(#filter0_f_64_329)">
<ellipse cx="23.9386" cy="23.9693" rx="17.9386" ry="17.9693" fill="url(#paint0_linear_64_329)"/>
</g>
<path d="M16.75 34V34.25H17H26.2457C27.6717 34.25 28.9055 34.0401 29.9401 33.6111L29.942 33.6102C30.9951 33.1629 31.8111 32.5142 32.3769 31.6602C32.9621 30.8049 33.25 29.7934 33.25 28.6369C33.25 27.7581 33.0675 26.9712 32.6952 26.2833C32.3427 25.598 31.8335 25.0367 31.1721 24.6011C30.8876 24.4138 30.5777 24.2536 30.2429 24.1201C30.7978 23.8269 31.2741 23.4462 31.6689 22.9764C32.3748 22.1364 32.724 21.1166 32.724 19.9319C32.724 18.3327 32.1202 17.0538 30.911 16.123C29.7252 15.196 28.0571 14.75 25.9412 14.75H17H16.75V15V34ZM27.6311 30.2717L27.631 30.2716L27.6244 30.275C27.4107 30.3871 27.1391 30.4794 26.8045 30.548C26.4737 30.6158 26.0942 30.6507 25.6644 30.6507H21.3469V26.1649H25.6644C26.0942 26.1649 26.4737 26.1998 26.8045 26.2676L26.8044 26.2679L26.8167 26.2698C27.1436 26.32 27.4062 26.4103 27.612 26.5336L27.6213 26.5392L27.6311 26.5439C27.8615 26.6561 28.0447 26.7972 28.1858 26.9651C28.3268 27.1329 28.4308 27.3334 28.4959 27.571L28.4987 27.5812L28.5023 27.5911C28.5821 27.8086 28.6254 28.0746 28.6254 28.3943C28.6254 28.6939 28.5827 28.9625 28.5005 29.2027L28.498 29.2101L28.4959 29.2176C28.4309 29.4548 28.3264 29.6664 28.1824 29.8545C28.0417 30.0207 27.8597 30.1604 27.6311 30.2717ZM25.1938 22.5656H21.3469V18.3493H25.1938C26.2417 18.3493 26.9696 18.5443 27.4225 18.8908C27.8654 19.2296 28.0995 19.7328 28.0995 20.444C28.0995 21.1753 27.8639 21.6865 27.4225 22.0241C26.9696 22.3706 26.2417 22.5656 25.1938 22.5656Z" fill="#353535" stroke="#353535" stroke-width="0.5"/>
<defs>
<filter id="filter0_f_64_329" x="0" y="0" width="47.8771" height="47.9386" filterUnits="userSpaceOnUse" color-interpolation-filters="sRGB">
<feFlood flood-opacity="0" result="BackgroundImageFix"/>
<feBlend mode="normal" in="SourceGraphic" in2="BackgroundImageFix" result="shape"/>
<feGaussianBlur stdDeviation="3" result="effect1_foregroundBlur_64_329"/>
</filter>
<linearGradient id="paint0_linear_64_329" x1="6" y1="23.9693" x2="41.8771" y2="23.9693" gradientUnits="userSpaceOnUse">
<stop stop-color="#F55E7B"/>
<stop offset="1" stop-color="#765EF7"/>
</linearGradient>
</defs>
</svg>
